<?xml version="1.0" encoding="UTF-8" standalone="no"?>
<svg
   enable-background="new"
   viewBox="0 0 48 48"
   version="1.1"
   id="svg2"
   sodipodi:docname="weather-clouds-night.svg"
   inkscape:version="1.4 (1:1.4+202410161351+e7c3feb100)"
   xmlns:inkscape="http://www.inkscape.org/namespaces/inkscape"
   xmlns:sodipodi="http://sodipodi.sourceforge.net/DTD/sodipodi-0.dtd"
   xmlns="http://www.w3.org/2000/svg"
   xmlns:svg="http://www.w3.org/2000/svg">
  <defs
     id="defs2" />
  <sodipodi:namedview
     id="namedview2"
     pagecolor="#ffffff"
     bordercolor="#666666"
     borderopacity="1.0"
     inkscape:showpageshadow="2"
     inkscape:pageopacity="0.0"
     inkscape:pagecheckerboard="0"
     inkscape:deskcolor="#d1d1d1"
     inkscape:zoom="6.0472361"
     inkscape:cx="23.895214"
     inkscape:cy="19.099635"
     inkscape:window-width="1920"
     inkscape:window-height="1024"
     inkscape:window-x="0"
     inkscape:window-y="0"
     inkscape:window-maximized="1"
     inkscape:current-layer="svg2" />
  <path
     d="m23.413 7c-9.06 0-16.413 7.611-16.413 17s7.348 17 16.413 17c2.49 0 4.848-0.579 6.962-1.607-5.582-2.714-9.45-8.583-9.45-15.393 0-6.809 3.868-12.679 9.45-15.393-2.114-1.028-4.472-1.607-6.962-1.607"
     fill="#eceff4"
     id="path1" />
  <path
     d="m23.2 25c-0.31 0-0.642 0.015-0.979 0.058-5.385 0.693-5.221 5.314-5.221 5.314-2.206 0.375-4 2.299-4 4.312 0 2.01 2.297 3.794 4.228 4.312 1.149 0.308 2.653 0 2.653 0 0.682 1.202 2.93 2 4.498 2 2.556 0 5.184-0.848 5.789-2 0 0 10.587 0.847 12.784 0 3.199-1.233 2.199-5.085 0.071-6.388s-4.909-0.392-4.909-0.392-0.012-2.653-3.02-3.92c-3.01-1.268-5.548 1.539-5.548 1.539s-1.686-4.806-6.342-4.835z"
     fill="#d8d8d8"
     id="path2" />
</svg>
