<?xml version="1.0" encoding="UTF-8" standalone="no"?>
<svg
   enable-background="new"
   viewBox="0 0 48 48"
   version="1.1"
   id="svg2"
   sodipodi:docname="weather-clouds-night-bg.svg"
   inkscape:version="1.4 (1:1.4+202410161351+e7c3feb100)"
   xmlns:inkscape="http://www.inkscape.org/namespaces/inkscape"
   xmlns:sodipodi="http://sodipodi.sourceforge.net/DTD/sodipodi-0.dtd"
   xmlns="http://www.w3.org/2000/svg"
   xmlns:svg="http://www.w3.org/2000/svg">
  <defs
     id="defs2" />
  <sodipodi:namedview
     id="namedview2"
     pagecolor="#ffffff"
     bordercolor="#666666"
     borderopacity="1.0"
     inkscape:showpageshadow="2"
     inkscape:pageopacity="0.0"
     inkscape:pagecheckerboard="0"
     inkscape:deskcolor="#d1d1d1"
     inkscape:zoom="13.395833"
     inkscape:cx="24"
     inkscape:cy="24"
     inkscape:window-width="1920"
     inkscape:window-height="1024"
     inkscape:window-x="0"
     inkscape:window-y="0"
     inkscape:window-maximized="1"
     inkscape:current-layer="svg2" />
  <path
     d="m24.926 22c-0.272 0-0.562 0.013-0.857 0.051-4.712 0.607-4.569 4.65-4.569 4.65-1.93 0.328-3.501 2.01-3.501 3.773 0 1.761 2.01 3.32 3.7 3.773 1 0.27 2.322 0 2.322 0 0.597 1.052 2.564 1.753 3.936 1.753 2.237 0 4.536-0.742 5.065-1.753 0 0 9.263 0.741 11.186 0 2.799-1.079 1.924-4.45 0.062-5.59s-4.296-0.343-4.296-0.343-0.011-2.321-2.644-3.43c-2.634-1.109-4.854 1.347-4.854 1.347s-1.476-4.205-5.549-4.23z"
     fill="#eceff4"
     id="path2" />
</svg>
