<?xml version="1.0" encoding="UTF-8" standalone="no"?>
<svg
   enable-background="new"
   viewBox="0 0 48 48"
   version="1.1"
   id="svg8"
   sodipodi:docname="weather-storm-night-gb.svg"
   inkscape:version="1.4 (1:1.4+202410161351+e7c3feb100)"
   xmlns:inkscape="http://www.inkscape.org/namespaces/inkscape"
   xmlns:sodipodi="http://sodipodi.sourceforge.net/DTD/sodipodi-0.dtd"
   xmlns="http://www.w3.org/2000/svg"
   xmlns:svg="http://www.w3.org/2000/svg">
  <defs
     id="defs8" />
  <sodipodi:namedview
     id="namedview8"
     pagecolor="#ffffff"
     bordercolor="#666666"
     borderopacity="1.0"
     inkscape:showpageshadow="2"
     inkscape:pageopacity="0.0"
     inkscape:pagecheckerboard="0"
     inkscape:deskcolor="#d1d1d1"
     inkscape:zoom="13.395833"
     inkscape:cx="24"
     inkscape:cy="24"
     inkscape:window-width="1920"
     inkscape:window-height="1024"
     inkscape:window-x="0"
     inkscape:window-y="0"
     inkscape:window-maximized="1"
     inkscape:current-layer="svg8" />
  <path
     d="m10.2 41.871c-1.942-0.558 0.046-4.328 1.238-5.561 0.574 1.629 0.703 6.119-1.238 5.561z"
     fill="#eceff4"
     id="path1" />
  <path
     d="m13.849 36.34c-1.942-0.558 0.046-4.328 1.238-5.561 0.574 1.629 0.703 6.119-1.238 5.561z"
     fill="#eceff4"
     id="path2" />
  <path
     d="m8.622 33.663c-1.942-0.558 0.046-4.328 1.238-5.561 0.574 1.629 0.703 6.119-1.238 5.561z"
     fill="#eceff4"
     id="path3" />
  <path
     d="m27.22 43.533c-1.942-0.558 0.046-4.328 1.238-5.561 0.574 1.629 0.703 6.119-1.238 5.561z"
     fill="#eceff4"
     id="path4" />
  <path
     d="m27.415 33.903c-1.942-0.558 0.046-4.328 1.238-5.561 0.574 1.629 0.703 6.119-1.238 5.561z"
     fill="#eceff4"
     id="path7" />
  <path
     d="m17.477 10c-0.349 0-0.722 0.017-1.101 0.065-6.06 0.78-5.874 5.978-5.874 5.978-2.481 0.422-4.501 2.587-4.501 4.851s2.584 4.269 4.757 4.851c1.292 0.347 2.985 0 2.985 0 0.767 1.353 3.296 2.254 5.06 2.254 2.876 0 5.832-0.954 6.513-2.254 0 0 11.91 0.953 14.382 0 3.599-1.388 2.474-5.721 0.08-7.187s-5.523-0.441-5.523-0.441-0.014-2.984-3.4-4.41-6.241 1.731-6.241 1.731-1.897-5.407-7.135-5.439z"
     fill="#eceff4"
     id="path8" />
</svg>
