<?xml version="1.0" encoding="UTF-8" standalone="no"?>
<svg
   enable-background="new"
   viewBox="0 0 48 48"
   version="1.1"
   id="svg9"
   sodipodi:docname="weather-few-clouds-pf.svg"
   inkscape:version="1.4 (1:1.4+202410161351+e7c3feb100)"
   xmlns:inkscape="http://www.inkscape.org/namespaces/inkscape"
   xmlns:sodipodi="http://sodipodi.sourceforge.net/DTD/sodipodi-0.dtd"
   xmlns="http://www.w3.org/2000/svg"
   xmlns:svg="http://www.w3.org/2000/svg">
  <defs
     id="defs9" />
  <sodipodi:namedview
     id="namedview9"
     pagecolor="#ffffff"
     bordercolor="#666666"
     borderopacity="1.0"
     inkscape:showpageshadow="2"
     inkscape:pageopacity="0.0"
     inkscape:pagecheckerboard="0"
     inkscape:deskcolor="#d1d1d1"
     inkscape:zoom="13.395833"
     inkscape:cx="24"
     inkscape:cy="24"
     inkscape:window-width="1920"
     inkscape:window-height="1024"
     inkscape:window-x="0"
     inkscape:window-y="0"
     inkscape:window-maximized="1"
     inkscape:current-layer="svg9" />
  <path
     d="m23.2 25c-0.31 0-0.642 0.015-0.979 0.058-5.385 0.693-5.221 5.314-5.221 5.314-2.206 0.375-4 2.299-4 4.312 0 2.01 2.297 3.794 4.228 4.312 1.149 0.308 2.653 0 2.653 0 0.682 1.202 2.93 2 4.498 2 2.556 0 5.184-0.848 5.789-2 0 0 10.587 0.847 12.784 0 3.199-1.233 2.199-5.085 0.071-6.388s-4.909-0.392-4.909-0.392-0.012-2.653-3.02-3.92c-3.01-1.268-5.548 1.539-5.548 1.539s-1.686-4.806-6.342-4.835z"
     fill="#eceff4"
     id="path9" />
</svg>
